<svg width="400" height="350" xmlns="http://www.w3.org/2000/svg" fill-rule="evenodd" clip-rule="evenodd" stroke-linejoin="round" stroke-miterlimit="2"><path d="M0-.017h2.1V18.75H0z"/><path d="M10.433 18.75V8.317H12.5V18.75h-2.067zm-6.266 0V6.25h2.1v2.067h2.066v2.1H6.267v8.333h-2.1zM8.333 8.317V6.25h2.1v2.067h-2.1zM20.833 18.75v-2.1h2.1v2.1h-2.1zm-2.066-2.1V8.317h-2.1V6.25h2.1V2.083h2.066V6.25h2.1v2.067h-2.1v8.333h-2.066zM31.267 18.75V8.317h2.066V18.75h-2.066zm-6.267 0V-.017h2.1V6.25h4.167v2.067H27.1V18.75H25zM37.517 18.75v-2.1h4.166v2.1h-4.166zm4.166-2.1v-2.067h2.067v2.067h-2.067zm-6.266 0V8.317h2.1v2.1h4.166v2.066h-4.166v4.167h-2.1zm6.266-6.233v-2.1h2.067v2.1h-2.067zm-4.166-2.1V6.25h4.166v2.067h-4.166zM47.917 16.65V8.317h2.1v8.333h-2.1zm2.1 2.1v-2.1h4.166V8.317h-4.166V6.25h4.166V-.017h2.067V18.75h-6.233zM58.333 16.65v-4.167h2.1v4.167h-2.1zm2.1 2.1v-2.1H64.6v-4.167h-4.167v-2.066H64.6v-2.1h2.067V18.75h-6.234zm0-10.433V6.25H64.6v2.067h-4.167zM68.75 18.75V6.25h2.1v2.067h2.067v2.1H70.85v8.333h-2.1zm4.167-10.433V6.25h4.166v2.067h-4.166zM85.433 18.75v-4.167H87.5v4.167h-2.067zm-2.1-4.167v-2.1h2.1v2.1h-2.1zm0-4.166v-2.1h2.1v2.1h-2.1zm2.1-2.1V6.25H87.5v2.067h-2.067zM79.167 18.75V-.017h2.1v10.434h2.066v2.066h-2.066v6.267h-2.1zM95.85 18.75V8.317h2.066V18.75H95.85zm-6.267 0V6.25h2.1v2.067h2.067v2.1h-2.067v8.333h-2.1zM93.75 8.317V6.25h2.1v2.067h-2.1zM102.1 18.75v-2.1h4.167v2.1H102.1zm4.167-2.1v-2.067h2.066v2.067h-2.066zm-6.267 0V8.317h2.1v2.1h4.167v2.066H102.1v4.167H100zm6.267-6.233v-2.1h2.066v2.1h-2.066zm-4.167-2.1V6.25h4.167v2.067H102.1zM112.517 18.75v-2.1h4.167v2.1h-4.167zm-2.1-2.1v-2.067h2.1v2.067h-2.1zm6.267 0v-4.167h2.066v4.167h-2.066zm-4.167-4.167v-2.066h4.167v2.066h-4.167zm-2.1-2.066v-2.1h2.1v2.1h-2.1zm2.1-2.1V6.25h4.167v2.067h-4.167zM122.933 18.75v-2.1h4.167v2.1h-4.167zm-2.1-2.1v-2.067h2.1v2.067h-2.1zm6.267 0v-4.167h2.066v4.167H127.1zm-4.167-4.167v-2.066h4.167v2.066h-4.167zm-2.1-2.066v-2.1h2.1v2.1h-2.1zm2.1-2.1V6.25h4.167v2.067h-4.167zM131.25 20.85v-2.1h2.1v2.1h-2.1zm2.1-2.1v-2.1h2.067v2.1h-2.067zM141.683 18.75v-2.1h4.167v2.1h-4.167zm4.167-2.1v-2.067h2.066v2.067h-2.066zm-6.267 0V8.317h2.1v8.333h-2.1zm6.267-6.233v-2.1h2.066v2.1h-2.066zm-4.167-2.1V6.25h4.167v2.067h-4.167zM150 16.65v-4.167h2.1v4.167H150zm2.1 2.1v-2.1h4.167v-4.167H152.1v-2.066h4.167v-2.1h2.066V18.75H152.1zm0-10.433V6.25h4.167v2.067H152.1zM160.417 18.75V6.25h2.1v2.067h2.067v2.1h-2.067v8.333h-2.1zm4.167-10.433V6.25h4.166v2.067h-4.166zM170.833 18.75V6.25h2.1v2.067H175v2.1h-2.067v8.333h-2.1zM175 8.317V6.25h4.166v2.067H175zM183.35 22.917V20.85h4.167v2.067h-4.167zm-2.1-2.067v-2.1h2.1v2.1h-2.1zm2.1-4.2v-2.067h2.067v2.067h-2.067zm-2.1-2.067V6.25h2.1v8.333h-2.1zm6.267 6.267v-2.1h-2.1v-2.1h2.1V6.25h2.066v14.6h-2.066zM197.917 18.75v-2.1h2.1v2.1h-2.1zm-2.067-2.1V8.317h-2.1V6.25h2.1V2.083h2.067V6.25h2.1v2.067h-2.1v8.333h-2.067zM208.35 18.75V8.317h2.066V18.75h-2.066zm-6.267 0V-.017h2.1V6.25h4.167v2.067h-4.167V18.75h-2.1zM214.6 18.75v-2.1h4.167v2.1H214.6zm4.167-2.1v-2.067h2.066v2.067h-2.066zm-6.267 0V8.317h2.1v2.1h4.167v2.066H214.6v4.167h-2.1zm6.267-6.233v-2.1h2.066v2.1h-2.066zm-4.167-2.1V6.25h4.167v2.067H214.6z" fill-rule="nonzero"/><path d="M225-.017h2.1V18.75H225z"/><path d="M229.167 18.75V6.25h2.1v12.5h-2.1zm0-14.6V2.083h2.1V4.15h-2.1zM235.433 22.917V20.85h4.167v2.067h-4.167zm-2.1-2.067v-2.1h2.1v2.1h-2.1zm2.1-4.2v-2.067h2.067v2.067h-2.067zm-2.1-2.067V8.317h2.1v6.266h-2.1zm6.267 6.267v-2.1h-2.1v-2.1h2.1V8.317h-4.167V6.25h6.233v14.6H239.6zM250.017 18.75V8.317h2.066V18.75h-2.066zm-6.267 0V-.017h2.1V6.25h4.167v2.067h-4.167V18.75h-2.1zM258.334 18.75v-2.1h2.1v2.1h-2.1zm-2.067-2.1V8.317h-2.1V6.25h2.1V2.083h2.067V6.25h2.1v2.067h-2.1v8.333h-2.067z" fill-rule="nonzero"/><g><path d="M2.1 48.761v-2.1h6.233v2.1H2.1zm-2.1-2.1V27.928h2.1v18.733H0zm8.333 0V27.928h2.1v18.733h-2.1zM20.833 48.761v-12.5h2.1v12.5h-2.1zm-8.333 0v-14.6h2.1v2.1h2.067v2.067H14.6v10.433h-2.1zm4.167-12.5v-2.1h4.166v2.1h-4.166zM27.1 48.761v-2.1h4.167v2.1H27.1zm-2.1-2.1v-10.4h2.1v10.4H25zm2.1-10.4v-2.1h4.167v2.1H27.1zm6.233 12.5v-2.1h-2.066v-2.067h2.066v-6.266h-2.066v-2.067h2.066v-8.333h2.1v20.833h-2.1zM39.6 48.761v-2.1h6.233v2.1H39.6zm6.233-2.1v-2.067h2.1v2.067h-2.1zm-8.333 0v-10.4h2.1v4.167h6.233v2.066H39.6v4.167h-2.1zm8.333-6.233v-4.167h2.1v4.167h-2.1zM39.6 36.261v-2.1h6.233v2.1H39.6zM58.333 38.328v-2.067h2.1v2.067h-2.1zM50 48.761v-14.6h2.1v2.1h2.067v2.067H52.1v10.433H50zm4.167-12.5v-2.1h4.166v2.1h-4.166zM68.75 48.761v-2.1h2.1v2.1h-2.1zm-2.067-2.1v-10.4h-2.1v-2.1h2.1v-4.167h2.067v4.167h2.1v2.1h-2.1v10.4h-2.067zM81.25 48.761v-12.5h2.1v12.5h-2.1zm-4.167-12.5v-2.1h4.167v2.1h-4.167zm-4.166 12.5V27.928h2.1v8.333h2.066v2.067h-2.066v10.433h-2.1zM87.517 48.761v-2.1h6.233v2.1h-6.233zm6.233-2.1v-2.067h2.1v2.067h-2.1zm-8.333 0v-10.4h2.1v4.167h6.233v2.066h-6.233v4.167h-2.1zm8.333-6.233v-4.167h2.1v4.167h-2.1zm-6.233-4.167v-2.1h6.233v2.1h-6.233zM102.1 48.761v-2.1h6.233v2.1H102.1zm-2.1-2.1v-2.067h2.1v2.067H100zm8.333 0v-6.233h2.1v6.233h-2.1zm-6.233-6.233v-2.1h6.233v2.1H102.1zm-2.1-2.1v-2.067h2.1v2.067H100zm2.1-2.067v-2.1h6.233v2.1H102.1zM116.667 48.761v-2.1h2.1v2.1h-2.1zm-2.067-2.1v-10.4h-2.1v-2.1h2.1v-4.167h2.067v4.167h2.1v2.1h-2.1v10.4H114.6zM122.933 48.761v-2.1h4.167v2.1h-4.167zm-2.1-2.1v-6.233h2.1v6.233h-2.1zm8.333 2.1v-2.1H127.1v-2.067h2.066v-4.166h-6.233v-2.1h6.233v-2.067h2.1v12.5h-2.1zm-6.233-12.5v-2.1h6.233v2.1h-6.233zM141.666 38.328v-2.067h2.1v2.067h-2.1zm-8.333 10.433v-14.6h2.1v2.1h2.067v2.067h-2.067v10.433h-2.1zm4.167-12.5v-2.1h4.166v2.1H137.5z" fill-rule="nonzero"/><path d="M145.833 40.428h10.433v2.1h-10.433z"/><path d="M160.433 48.761v-2.1h6.233v2.1h-6.233zm-2.1-2.1v-2.067h2.1v2.067h-2.1zm8.333 0v-6.233h2.1v6.233h-2.1zm-6.233-6.233v-2.1h6.233v2.1h-6.233zm-2.1-2.1v-2.067h2.1v2.067h-2.1zm2.1-2.067v-2.1h6.233v2.1h-6.233zM175 48.761v-2.1h2.1v2.1H175zm-2.067-2.1v-10.4h-2.1v-2.1h2.1v-4.167H175v4.167h2.1v2.1H175v10.4h-2.067zM187.5 38.328v-2.067h2.1v2.067h-2.1zm-8.333 10.433v-14.6h2.1v2.1h2.067v2.067h-2.067v10.433h-2.1zm4.167-12.5v-2.1h4.166v2.1h-4.166zM193.767 48.761v-2.1h4.167v2.1h-4.167zm-2.1-2.1v-12.5h2.1v12.5h-2.1zm8.333 2.1v-2.1h-2.066v-2.067H200V34.161h2.1v14.6H200zM206.267 48.761v-2.1h6.233v2.1h-6.233zm6.233-2.1v-2.067h2.1v2.067h-2.1zm-8.333 0v-10.4h2.1v10.4h-2.1zm8.333-8.333v-2.067h2.1v2.067h-2.1zm-6.233-2.067v-2.1h6.233v2.1h-6.233zM225 48.761v-2.1h2.1v2.1H225zm-2.066-2.1v-2.067H225v2.067h-2.066zm-2.1-2.067v-2.1h2.1v2.1h-2.1zm0-4.166v-2.1h2.1v2.1h-2.1zm2.1-2.1v-2.067H225v2.067h-2.066zM225 36.261v-2.1h2.1v2.1H225zm-8.333 12.5V27.928h2.1v12.5h2.067v2.066h-2.067v6.267h-2.1zM239.583 48.761v-12.5h2.1v12.5h-2.1zm-8.333 0v-14.6h2.1v2.1h2.067v2.067h-2.067v10.433h-2.1zm4.167-12.5v-2.1h4.166v2.1h-4.166zM243.75 48.761v-14.6h2.1v14.6h-2.1zm0-16.667v-2.1h2.1v2.1h-2.1zM250.017 52.928v-2.067h6.233v2.067h-6.233zm-2.1-2.067v-2.1h2.1v2.1h-2.1zm2.1-4.2v-2.067h4.167v2.067h-4.167zm-2.1-2.067v-8.333h2.1v8.333h-2.1zm2.1-8.333v-2.1h4.167v2.1h-4.167zm6.233 14.6v-2.1h-2.066v-2.1h2.066v-8.333h-2.066v-2.067h2.066v-2.1h2.1v16.7h-2.1zM268.75 48.761v-12.5h2.1v12.5h-2.1zm-4.166-12.5v-2.1h4.166v2.1h-4.166zm-4.167 12.5V27.928h2.1v8.333h2.067v2.067h-2.067v10.433h-2.1zM277.084 48.761v-2.1h2.1v2.1h-2.1zm-2.067-2.1v-10.4h-2.1v-2.1h2.1v-4.167h2.067v4.167h2.1v2.1h-2.1v10.4h-2.067zM281.25 50.861v-2.1h2.1v2.1h-2.1zm2.1-2.1v-2.1h2.067v2.1h-2.067z" fill-rule="nonzero"/></g><g><path d="M3.9 83.439v-1.967h3.933v1.967H3.9zm-1.933-1.967v-1.933H3.9v1.933H1.967zm5.866 0v-1.933H9.8v1.933H7.833zM9.8 79.539v-1.967h1.967v1.967H9.8zm-9.8 0V67.772h1.967v11.767H0zm9.8-9.834v-1.933h1.967v1.933H9.8zm-7.833-1.933v-1.967H3.9v1.967H1.967zm5.866 0v-1.967H9.8v1.967H7.833zM3.9 65.805v-1.966h3.933v1.966H3.9zM17.621 83.439v-1.967h3.933v1.967h-3.933zm-1.934-1.967v-1.933h1.934v1.933h-1.934zm5.867 0v-1.933h1.967v1.933h-1.967zm-7.833-1.933V67.772h1.966v11.767h-1.966zm9.8 0V67.772h1.966v11.767h-1.966zm-7.834-11.767v-1.967h1.934v1.967h-1.934zm5.867 0v-1.967h1.967v1.967h-1.967zm-3.933-1.967v-1.966h3.933v1.966h-3.933zM37.241 83.439V67.772h1.967v15.667h-1.967zm-1.966-15.667v-1.967h1.966v1.967h-1.966zm-7.834 15.667v-19.6h1.967v1.966h1.933v1.967h-1.933v15.667h-1.967zm3.9-17.634v-1.966h3.934v1.966h-3.934zM47.029 83.439v-1.967h3.933v1.967h-3.933zm-1.967-1.967V65.805h-3.9v-1.966h3.9v-5.9h1.967v5.9h3.933v1.966h-3.933v15.667h-1.967zM52.913 83.439v-19.6h1.967v19.6h-1.967zm0-23.534v-1.966h1.967v1.966h-1.967zM66.62 83.439V67.772h1.966v15.667H66.62zm-1.967-15.667v-1.967h1.967v1.967h-1.967zM56.82 83.439v-19.6h1.966v1.966h1.934v1.967h-1.934v15.667H56.82zm3.9-17.634v-1.966h3.933v1.966H60.72zM72.507 83.439v-1.967h3.9v1.967h-3.9zm3.9-1.967v-1.933h1.967v1.933h-1.967zm-5.867 0V63.839h1.967v17.633H70.54zm9.8 1.967v-3.9h-1.966v-1.967h1.966V63.839h1.967v19.6H80.34zM88.161 83.439v-1.967h3.933v1.967h-3.933zm-1.933-1.967v-1.933h1.933v1.933h-1.933zm5.866 0v-1.933h1.967v1.933h-1.967zm1.967-1.933v-1.967h1.967v1.967h-1.967zm-9.8 0V67.772h1.967v3.9h7.833v1.967h-7.833v5.9h-1.967zm9.8-7.867v-3.9h1.967v3.9h-1.967zm-7.833-3.9v-1.967h1.933v1.967h-1.933zm5.866 0v-1.967h1.967v1.967h-1.967zm-3.933-1.967v-1.966h3.933v1.966h-3.933zM111.678 83.439v-1.967h3.933v1.967h-3.933zm-1.967-1.967V65.805h-3.9v-1.966h3.9v-5.9h1.967v5.9h3.933v1.966h-3.933v15.667h-1.967zM127.362 83.439V67.772h1.967v15.667h-1.967zm-1.967-15.667v-1.967h1.967v1.967h-1.967zm-3.933-1.967v-1.966h3.933v1.966h-3.933zm-3.9 17.634v-25.5h1.967v7.866h1.933v1.967h-1.933v15.667h-1.967zM135.183 83.439v-1.967h3.933v1.967h-3.933zm-1.933-1.967v-1.933h1.933v1.933h-1.933zm5.866 0v-1.933h1.967v1.933h-1.967zm1.967-1.933v-1.967h1.967v1.967h-1.967zm-9.8 0V67.772h1.967v3.9h7.833v1.967h-7.833v5.9h-1.967zm9.8-7.867v-3.9h1.967v3.9h-1.967zm-7.833-3.9v-1.967h1.933v1.967h-1.933zm5.866 0v-1.967h1.967v1.967h-1.967zm-3.933-1.967v-1.966h3.933v1.966h-3.933zM162.632 83.439V67.772h1.967v15.667h-1.967zm-1.967-15.667v-1.967h1.967v1.967h-1.967zm-3.933-1.967v-1.966h3.933v1.966h-3.933zm-3.9 17.634v-25.5h1.967v7.866h1.933v1.967h-1.933v15.667h-1.967zM170.453 83.439v-1.967h3.933v1.967h-3.933zm-1.933-1.967v-1.933h1.933v1.933h-1.933zm-1.967-1.933v-5.9h1.967v5.9h-1.967zm1.967-5.9v-1.967h1.933v1.967h-1.933zm0-5.867v-1.967h1.933v1.967h-1.933zm7.833 15.667v-1.967h-1.967v-1.933h1.967v-7.867h-5.9v-1.967h5.9v-3.9h1.967v17.634h-1.967zm-5.9-17.634v-1.966h5.9v1.966h-5.9z" fill-rule="nonzero"/><path d="M180.273 57.939h1.967v25.5h-1.967zM184.18 57.939h1.967v25.5h-1.967z"/><path d="M191.986 83.439v-1.967h3.933v1.967h-3.933zm-1.933-1.967v-1.933h1.933v1.933h-1.933zm5.866 0v-1.933h1.967v1.933h-1.967zm-7.833-1.933V67.772h1.967v11.767h-1.967zm9.8 0V67.772h1.967v11.767h-1.967zm-7.833-11.767v-1.967h1.933v1.967h-1.933zm5.866 0v-1.967h1.967v1.967h-1.967zm-3.933-1.967v-1.966h3.933v1.966h-3.933zM207.674 83.439v-3.9h1.966v3.9h-1.966zm7.866 0v-3.9h1.934v3.9h-1.934zm-5.9-3.9v-3.934h1.967v3.934h-1.967zm3.934 0v-3.934h1.966v3.934h-1.966zm-7.867 0v-5.9h1.967v5.9h-1.967zm11.767 0v-5.9h1.966v5.9h-1.966zm-5.867-3.934v-3.933h1.967v3.933h-1.967zm-7.833-1.966v-5.867h1.933v5.867h-1.933zm15.666 0v-5.867h1.967v5.867h-1.967zm-17.633-5.867v-3.933h1.967v3.933h-1.967zm19.6 0v-3.933h1.967v3.933h-1.967zM229.226 83.439v-1.967h3.933v1.967h-3.933zm-1.933-1.967v-1.933h1.933v1.933h-1.933zm5.866 0v-1.933h1.967v1.933h-1.967zm1.967-1.933v-1.967h1.967v1.967h-1.967zm-9.8 0V67.772h1.967v3.9h7.833v1.967h-7.833v5.9h-1.967zm9.8-7.867v-3.9h1.967v3.9h-1.967zm-7.833-3.9v-1.967h1.933v1.967h-1.933zm5.866 0v-1.967h1.967v1.967h-1.967zm-3.933-1.967v-1.966h3.933v1.966h-3.933zM242.946 83.439v-1.967h3.933v1.967h-3.933zm-1.933-1.967v-1.933h1.933v1.933h-1.933zm-1.967-1.933V67.772h1.967v11.767h-1.967zm1.967-11.767v-1.967h1.933v1.967h-1.933zm1.933-1.967v-1.966h3.933v1.966h-3.933zm5.9 17.634v-1.967h-1.967v-1.933h1.967V67.772h-1.967v-1.967h1.967v-7.866h1.967v25.5h-1.967zM264.496 83.439V65.805h-3.9v-1.966h3.9v-3.934h1.967v3.934h3.933v1.966h-3.933v17.634h-1.967zm1.967-23.534v-1.966h3.933v1.966h-3.933zM272.347 83.439v-19.6h1.967v19.6h-1.967zm0-23.534v-1.966h1.967v1.966h-1.967zM280.153 91.272v-1.967h3.933v1.967h-3.933zm-1.933-1.967v-1.966h1.933v1.966h-1.933zm5.866 0v-1.966h1.967v1.966h-1.967zm-7.833-1.966v-1.934h1.967v1.934h-1.967zm3.9-3.9v-1.967h3.933v1.967h-3.933zm-1.933-1.967v-1.933h1.933v1.933h-1.933zm-1.967-1.933V67.772h1.967v11.767h-1.967zm1.967-11.767v-1.967h1.933v1.967h-1.933zm1.933-1.967v-1.966h3.933v1.966h-3.933zm5.9 21.534v-5.867h-1.967v-1.933h1.967V67.772h-1.967v-1.967h1.967v-1.966h1.967v23.5h-1.967zM299.774 83.439V67.772h1.967v15.667h-1.967zm-1.967-15.667v-1.967h1.967v1.967h-1.967zm-3.933-1.967v-1.966h3.933v1.966h-3.933zm-3.9 17.634v-25.5h1.967v7.866h1.933v1.967h-1.933v15.667h-1.967zM309.562 83.439v-1.967h3.933v1.967h-3.933zm-1.967-1.967V65.805h-3.9v-1.966h3.9v-5.9h1.967v5.9h3.933v1.966h-3.933v15.667h-1.967z" fill-rule="nonzero"/><path d="M315.446 81.472h1.967v1.967h-1.967z"/></g><g><path d="M7.833 121.783v-3.9H9.8v3.9H7.833zm11.767 0v-3.9h1.967v3.9H19.6zm-13.733-3.9v-3.933h1.966v3.933H5.867zm3.933 0v-3.933h1.967v3.933H9.8zm7.833 0v-3.933H19.6v3.933h-1.967zm3.934 0v-3.933h1.966v3.933h-1.966zM3.9 113.95v-5.9h1.967v5.9H3.9zm7.867 0v-5.9h1.966v5.9h-1.966zm3.9 0v-5.9h1.966v5.9h-1.966zm7.866 0v-5.9H25.5v5.9h-1.967zm-9.8-5.9v-3.9h1.934v3.9h-1.934zm-11.766 0v-5.867H3.9v5.867H1.967zm23.533 0v-5.867h1.933v5.867H25.5zM0 102.183v-5.9h1.967v5.9H0zm27.433 0v-5.9H29.4v5.9h-1.967zM43.139 121.783v-15.667h1.966v15.667h-1.966zm-1.967-15.667v-1.966h1.967v1.966h-1.967zm-5.9-1.966v-1.967h5.9v1.967h-5.9zm-3.9 17.633v-25.5h1.967v7.867h1.933v1.966h-1.933v15.667h-1.967zM50.954 121.783v-1.967h5.9v1.967h-5.9zm-1.933-1.967v-1.933h1.933v1.933h-1.933zm7.833 0v-1.933h1.967v1.933h-1.967zm1.967-1.933v-1.967h1.966v1.967h-1.966zm-11.767 0v-11.767h1.967v3.9h9.8v1.967h-9.8v5.9h-1.967zm11.767-7.867v-3.9h1.966v3.9h-1.966zm-9.8-3.9v-1.966h1.933v1.966h-1.933zm7.833 0v-1.966h1.967v1.966h-1.967zm-5.9-1.966v-1.967h5.9v1.967h-5.9zM74.503 121.783v-15.667h1.966v15.667h-1.966zm-1.967-15.667v-1.966h1.967v1.966h-1.967zm-9.8 15.667v-19.6h1.967v1.967h1.933v1.966h-1.933v15.667h-1.967zm3.9-17.633v-1.967h5.9v1.967h-5.9z" fill-rule="nonzero"/><path d="M86.255 96.283h1.967v25.5h-1.967z"/><path d="M103.873 121.783v-3.9h1.966v3.9h-1.966zm7.866 0v-3.9h1.934v3.9h-1.934zm-5.9-3.9v-3.933h1.967v3.933h-1.967zm3.934 0v-3.933h1.966v3.933h-1.966zm-7.867 0v-5.9h1.967v5.9h-1.967zm11.767 0v-5.9h1.966v5.9h-1.966zm-5.867-3.933v-3.934h1.967v3.934h-1.967zm-7.833-1.967v-5.867h1.933v5.867h-1.933zm15.666 0v-5.867h1.967v5.867h-1.967zm-17.633-5.867v-3.933h1.967v3.933h-1.967zm19.6 0v-3.933h1.967v3.933h-1.967zM125.433 121.783v-1.967h5.9v1.967h-5.9zm-1.933-1.967v-1.933h1.933v1.933H123.5zm-1.967-1.933v-5.9h1.967v5.9h-1.967zm1.967-5.9v-1.967h1.933v1.967H123.5zm0-5.867v-1.966h1.933v1.966H123.5zm9.8 15.667v-1.967h-1.967v-1.933h1.967v-7.867h-7.867v-1.966h7.867v-3.9h1.966v17.633H133.3zm-7.867-17.633v-1.967h7.867v1.967h-7.867zM141.115 121.783v-1.967h5.9v1.967h-5.9zm-1.933-1.967v-1.933h1.933v1.933h-1.933zm7.833 0v-1.933h1.967v1.933h-1.967zm-9.8-1.933v-1.967h1.967v1.967h-1.967zm11.767 0v-5.9h1.966v5.9h-1.966zm-1.967-5.9v-1.967h1.967v1.967h-1.967zm-5.9-1.967v-1.966h5.9v1.966h-5.9zm-1.933-1.966v-3.9h1.933v3.9h-1.933zm7.833-1.934v-1.966h1.967v1.966h-1.967zm-5.9-1.966v-1.967h5.9v1.967h-5.9zM164.634 129.616v-1.966h5.9v1.966h-5.9zm-1.933-1.966v-1.967h1.933v1.967h-1.933zm7.833 0v-1.967h1.967v1.967h-1.967zm-9.8-1.967v-1.933h1.967v1.933h-1.967zm3.9-3.9v-1.967h5.9v1.967h-5.9zm-1.933-1.967v-1.933h1.933v1.933h-1.933zm-1.967-1.933v-15.7h1.967v15.7h-1.967zm11.767 7.8v-5.867h-1.967v-1.933h1.967v-15.7h1.966v23.5h-1.966zM180.316 121.783v-1.967h5.9v1.967h-5.9zm-1.933-1.967v-1.933h1.933v1.933h-1.933zm7.833 0v-1.933h1.967v1.933h-1.967zm-9.8-1.933v-11.767h1.967v11.767h-1.967zm11.767 0v-11.767h1.966v11.767h-1.966zm-9.8-11.767v-1.966h1.933v1.966h-1.933zm7.833 0v-1.966h1.967v1.966h-1.967zm-5.9-1.966v-1.967h5.9v1.967h-5.9zM194.065 121.783v-1.967h5.866v1.967h-5.866zm5.866-1.967v-1.933h1.967v1.933h-1.967zm-7.833 0v-17.633h1.967v17.633h-1.967zm11.767 1.967v-3.9h-1.967v-1.967h1.967v-13.733h1.966v19.6h-1.966zM219.547 121.783v-15.667h1.966v15.667h-1.966zm-1.967-15.667v-1.966h1.967v1.966h-1.967zm-9.8 15.667v-19.6h1.967v1.967h1.933v1.966h-1.933v15.667h-1.967zm3.9-17.633v-1.967h5.9v1.967h-5.9zM227.362 129.616v-1.966h5.9v1.966h-5.9zm-1.933-1.966v-1.967h1.933v1.967h-1.933zm7.833 0v-1.967h1.967v1.967h-1.967zm-9.8-1.967v-1.933h1.967v1.933h-1.967zm3.9-3.9v-1.967h5.9v1.967h-5.9zm-1.933-1.967v-1.933h1.933v1.933h-1.933zm-1.967-1.933v-11.767h1.967v11.767h-1.967zm1.967-11.767v-1.966h1.933v1.966h-1.933zm1.933-1.966v-1.967h5.9v1.967h-5.9zm7.867 21.533v-5.867h-1.967v-1.933h1.967v-11.767h-1.967v-1.966h1.967v-1.967h1.966v23.5h-1.966zM250.881 121.783v-1.967h5.9v1.967h-5.9zm-1.933-1.967v-1.933h1.933v1.933h-1.933zm-1.967-1.933v-5.9h1.967v5.9h-1.967zm1.967-5.9v-1.967h1.933v1.967h-1.933zm0-5.867v-1.966h1.933v1.966h-1.933zm9.8 15.667v-1.967h-1.967v-1.933h1.967v-7.867h-7.867v-1.966h7.867v-3.9h1.966v17.633h-1.966zm-7.867-17.633v-1.967h7.867v1.967h-7.867zM274.43 121.783v-15.667h1.966v15.667h-1.966zm-1.967-15.667v-1.966h1.967v1.966h-1.967zm-9.8 15.667v-19.6h1.967v1.967h1.933v1.966h-1.933v15.667h-1.967zm3.9-17.633v-1.967h5.9v1.967h-5.9zM282.245 121.783v-1.967h5.9v1.967h-5.9zm-1.933-1.967v-1.933h1.933v1.933h-1.933zm-1.967-1.933v-11.767h1.967v11.767h-1.967zm1.967-11.767v-1.966h1.933v1.966h-1.933zm1.933-1.966v-1.967h5.9v1.967h-5.9zm7.867 17.633v-1.967h-1.967v-1.933h1.967v-11.767h-1.967v-1.966h1.967v-7.867h1.966v25.5h-1.966zM313.631 121.783v-15.667h1.966v15.667h-1.966zm-1.967-15.667v-1.966h1.967v1.966h-1.967zm-9.8 15.667v-19.6h1.967v1.967h1.933v1.966h-1.933v15.667h-1.967zm3.9-17.633v-1.967h5.9v1.967h-5.9zM321.446 121.783v-1.967h5.9v1.967h-5.9zm-1.933-1.967v-1.933h1.933v1.933h-1.933zm-1.967-1.933v-5.9h1.967v5.9h-1.967zm1.967-5.9v-1.967h1.933v1.967h-1.933zm0-5.867v-1.966h1.933v1.966h-1.933zm9.8 15.667v-1.967h-1.967v-1.933h1.967v-7.867h-7.867v-1.966h7.867v-3.9h1.966v17.633h-1.966zm-7.867-17.633v-1.967h7.867v1.967h-7.867zM333.228 121.783v-19.6h1.967v19.6h-1.967zm0-23.533v-1.967h1.967v1.967h-1.967zM343.009 121.783v-3.9h1.966v3.9h-1.966zm-1.967-3.9v-5.9h1.967v5.9h-1.967zm3.933 0v-5.9h1.967v5.9h-1.967zm-5.866-5.9v-5.867h1.933v5.867h-1.933zm7.833 0v-5.867h1.967v5.867h-1.967zm-9.8-5.867v-3.933h1.967v3.933h-1.967zm11.767 0v-3.933h1.966v3.933h-1.966zM356.724 121.783v-1.967h5.9v1.967h-5.9zm-1.933-1.967v-1.933h1.933v1.933h-1.933zm7.833 0v-1.933h1.967v1.933h-1.967zm1.967-1.933v-1.967h1.966v1.967h-1.966zm-11.767 0v-11.767h1.967v3.9h9.8v1.967h-9.8v5.9h-1.967zm11.767-7.867v-3.9h1.966v3.9h-1.966zm-9.8-3.9v-1.966h1.933v1.966h-1.933zm7.833 0v-1.966h1.967v1.966h-1.967zm-5.9-1.966v-1.967h5.9v1.967h-5.9z" fill-rule="nonzero"/></g><g><path d="M-.012 196.983h1.953v45.381H-.012z"/><path d="M26.137 242.364v-1.953h9.822v1.953h-9.822zm-2.011-1.953V238.4h2.011v2.011h-2.011zm11.833 0V238.4h2.012v2.011h-2.012zM22.173 238.4v-1.953h1.953v1.953h-1.953zm15.798 0v-3.905h1.952v3.905h-1.952zm1.952-3.905v-7.929h1.953v7.929h-1.953zm-1.952-7.929v-3.905h1.952v3.905h-1.952zm-2.012-3.905v-1.952h2.012v1.952h-2.012zm-7.869-1.952v-2.012h7.869v2.012H28.09zm-1.953-2.012v-1.952h1.953v1.952h-1.953zm-2.011-1.952v-3.964h2.011v3.964h-2.011zm2.011-3.964v-1.953h1.953v1.953h-1.953zm9.822 0v-1.953h2.012v1.953h-2.012zm-7.869-1.953v-2.012h7.869v2.012H28.09zM51.751 242.364v-1.953h7.869v1.953h-7.869zm-1.953-1.953V238.4h1.953v2.011h-1.953zm9.822 0V238.4h2.012v2.011H59.62zM47.787 238.4v-3.905h2.011v3.905h-2.011zm-1.953-3.905v-9.881h1.953v9.881h-1.953zm1.953-9.881v-3.905h2.011v3.905h-2.011zm2.011-3.905v-2.012h1.953v2.012h-1.953zm1.953-2.012v-1.952h9.881v1.952h-9.881zm11.833 23.667V238.4h-1.952v-1.953h1.952v-15.738h-1.952v-2.012h1.952v-5.916h1.953v29.583h-1.953zm-13.786-29.583v-1.953h1.953v1.953h-1.953zm11.834 0v-1.953h1.952v1.953h-1.952zm-9.881-1.953v-2.012h9.881v2.012h-9.881zM79.13 242.364V238.4h1.953v3.964H79.13zm11.774 0V238.4h2.012v3.964h-2.012zM77.118 238.4v-5.917h2.012v5.917h-2.012zm3.965 0v-5.917h1.952v5.917h-1.952zm7.869 0v-5.917h1.952v5.917h-1.952zm3.964 0v-5.917h1.952v5.917h-1.952zm-9.881-5.917v-5.917h2.012v5.917h-2.012zm3.964 0v-5.917h1.953v5.917h-1.953zm-11.833 0v-7.869h1.952v7.869h-1.952zm19.702 0v-7.869h2.012v7.869h-2.012zm-9.821-5.917v-3.905h1.952v3.905h-1.952zm-11.834-1.952v-5.917h1.953v5.917h-1.953zm23.667 0v-5.917h1.953v5.917H96.88zm-25.678-5.917v-5.916h2.011v5.916h-2.011zm27.631 0v-5.916h1.952v5.916h-1.952zm-29.584-5.916v-3.965h1.953v3.965h-1.953zm31.536 0v-3.965h2.012v3.965h-2.012zM130.395 242.364V238.4h1.953v3.964h-1.953zm11.775 0V238.4h2.011v3.964h-2.011zm-13.786-3.964v-5.917h2.011v5.917h-2.011zm3.964 0v-5.917h1.952v5.917h-1.952zm7.869 0v-5.917h1.953v5.917h-1.953zm3.964 0v-5.917h1.953v5.917h-1.953zm-9.881-5.917v-5.917h2.012v5.917H134.3zm3.965 0v-5.917h1.952v5.917h-1.952zm-11.834 0v-7.869h1.953v7.869h-1.953zm19.703 0v-7.869h2.011v7.869h-2.011zm-9.822-5.917v-3.905h1.953v3.905h-1.953zm-11.833-1.952v-5.917h1.952v5.917h-1.952zm23.666 0v-5.917h1.953v5.917h-1.953zm-25.678-5.917v-5.916h2.012v5.916h-2.012zm27.631 0v-5.916h1.952v5.916h-1.952zm-29.583-5.916v-3.965h1.952v3.965h-1.952zm31.535 0v-3.965h2.012v3.965h-2.012zM175.49 242.364v-25.619h1.952v25.619h-1.952zm-1.953-25.619v-3.964h1.953v3.964h-1.953zm-11.833-3.964v-1.953h1.952v1.953h-1.952zm9.821 0v-1.953h2.012v1.953h-2.012zm-7.869-1.953v-2.012h7.869v2.012h-7.869zm-5.916 31.536v-45.381h1.952v15.798h2.012v1.952h-2.012v27.631h-1.952zM187.071 242.364v-1.953h7.869v1.953h-7.869zm-1.952-1.953V238.4h1.952v2.011h-1.952zm9.821 0V238.4h2.012v2.011h-2.012zm-11.833-2.011v-3.905h2.012v3.905h-2.012zm-1.952-3.905v-9.881h1.952v9.881h-1.952zm1.952-9.881v-3.905h2.012v3.905h-2.012zm2.012-3.905v-2.012h1.952v2.012h-1.952zm1.952-2.012v-1.952h9.881v1.952h-9.881zm11.834 23.667V238.4h-1.953v-1.953h1.953v-15.738h-1.953v-2.012h1.953v-5.916h1.952v29.583h-1.952zm-13.786-29.583v-1.953h1.952v1.953h-1.952zm11.833 0v-1.953h1.953v1.953h-1.953zm-9.881-1.953v-2.012h9.881v2.012h-9.881zM214.45 242.364v-1.953h3.905v1.953h-3.905zm-2.011-1.953V238.4h2.011v2.011h-2.011zm-1.953-2.011v-27.572h-5.916v-2.012h5.916V202.9h1.953v5.916h5.916v2.012h-5.916V238.4h-1.953zM246.229 242.364V238.4h1.953v3.964h-1.953zm11.775 0V238.4h2.011v3.964h-2.011zm-13.786-3.964v-5.917h2.011v5.917h-2.011zm3.964 0v-5.917h1.952v5.917h-1.952zm7.869 0v-5.917h1.953v5.917h-1.953zm3.964 0v-5.917h1.953v5.917h-1.953zm-9.881-5.917v-5.917h2.012v5.917h-2.012zm3.965 0v-5.917h1.952v5.917h-1.952zm-11.834 0v-7.869h1.953v7.869h-1.953zm19.703 0v-7.869h2.011v7.869h-2.011zm-9.822-5.917v-3.905h1.953v3.905h-1.953zm-11.833-1.952v-5.917h1.952v5.917h-1.952zm23.666 0v-5.917h1.953v5.917h-1.953zm-25.678-5.917v-5.916h2.012v5.916h-2.012zm27.631 0v-5.916h1.952v5.916h-1.952zm-29.583-5.916v-3.965h1.952v3.965h-1.952zm31.535 0v-3.965h2.012v3.965h-2.012zM279.49 242.364v-1.953h7.869v1.953h-7.869zm-1.952-1.953V238.4h1.952v2.011h-1.952zm9.821 0V238.4h2.012v2.011h-2.012zm-11.833-2.011v-3.905h2.012v3.905h-2.012zm13.845 0v-3.905h1.953v3.905h-1.953zm-15.797-3.905v-17.75h1.952v17.75h-1.952zm17.75 0v-17.75h1.952v17.75h-1.952zm-15.798-17.75v-3.964h2.012v3.964h-2.012zm13.845 0v-3.964h1.953v3.964h-1.953zm-11.833-3.964v-1.953h1.952v1.953h-1.952zm9.821 0v-1.953h2.012v1.953h-2.012zm-7.869-1.953v-2.012h7.869v2.012h-7.869zM303.151 242.364v-1.953h7.869v1.953h-7.869zm-1.952-1.953V238.4h1.952v2.011h-1.952zm9.821 0V238.4h2.012v2.011h-2.012zm-11.833-2.011v-3.905h2.012v3.905h-2.012zm-1.952-3.905v-25.679h1.952v25.679h-1.952zm17.75 7.869V238.4h-1.953v-1.953h1.953v-27.631h1.952v33.548h-1.952z" fill-rule="nonzero"/><path d="M322.848 196.983h1.953v45.381h-1.953z"/><path d="M336.418 242.364v-1.953h7.869v1.953h-7.869zm-1.952-1.953V238.4h1.952v2.011h-1.952zm9.821 0V238.4h2.012v2.011h-2.012zm-11.833-2.011v-3.905h2.012v3.905h-2.012zm-1.952-3.905v-17.75h1.952v17.75h-1.952zm1.952-17.75v-3.964h2.012v3.964h-2.012zm2.012-3.964v-1.953h1.952v1.953h-1.952zm9.821 0v-1.953h2.012v1.953h-2.012zm-7.869-1.953v-2.012h7.869v2.012h-7.869zm11.834 31.536V238.4h-1.953v-1.953h1.953v-21.714h-1.953v-1.952h1.953v-15.798h1.952v45.381h-1.952z" fill-rule="nonzero"/></g><g><path d="M17.75 292.756v-25.619h1.953v25.619H17.75zm-1.952-25.619v-3.964h1.952v3.964h-1.952zm-11.834-3.964v-1.953h1.953v1.953H3.964zm9.822 0v-1.953h2.012v1.953h-2.012zm-7.869-1.953v-2.012h7.869v2.012H5.917zM0 292.756v-45.381h1.953v15.798h2.011v1.952H1.953v27.631H0zM29.332 292.756v-1.953h7.869v1.953h-7.869zm-1.953-1.953v-2.011h1.953v2.011h-1.953zm9.822 0v-2.011h2.012v2.011h-2.012zm-11.833-2.011v-3.905h2.011v3.905h-2.011zm-1.953-3.905v-9.881h1.953v9.881h-1.953zm1.953-9.881v-3.905h2.011v3.905h-2.011zm2.011-3.905v-2.012h1.953v2.012h-1.953zm1.953-2.012v-1.952h9.881v1.952h-9.881zm11.833 23.667v-3.964h-1.952v-1.953h1.952v-15.738h-1.952v-2.012h1.952v-5.916h1.953v29.583h-1.953zm-13.786-29.583v-1.953h1.953v1.953h-1.953zm11.834 0v-1.953h1.952v1.953h-1.952zm-9.881-1.953v-2.012h9.881v2.012h-9.881zM52.747 292.756v-1.953h7.87v1.953h-7.87zm-1.952-1.953v-2.011h1.952v2.011h-1.952zm9.822 0v-2.011h2.011v2.011h-2.011zm2.011-2.011v-3.905h1.953v3.905h-1.953zm1.953-3.905v-17.75h1.952v17.75h-1.952zm-1.953-17.75v-3.964h1.953v3.964h-1.953zm-11.833-3.964v-1.953h1.952v1.953h-1.952zm9.822 0v-1.953h2.011v1.953h-2.011zm-13.786 43.369v-47.334h1.952v3.965h2.012v1.952h-2.012v21.714h2.012v1.953h-2.012v17.75h-1.952zm5.916-45.322v-2.012h7.87v2.012h-7.87zM76.163 292.756v-1.953h7.869v1.953h-7.869zm-1.953-1.953v-2.011h1.953v2.011H74.21zm9.822 0v-2.011h2.012v2.011h-2.012zm2.012-2.011v-3.905h1.952v3.905h-1.952zm1.952-3.905v-17.75h1.953v17.75h-1.953zm-1.952-17.75v-3.964h1.952v3.964h-1.952zm-11.834-3.964v-1.953h1.953v1.953H74.21zm9.822 0v-1.953h2.012v1.953h-2.012zm-13.786 43.369v-47.334h1.953v3.965h2.011v1.952h-2.011v21.714h2.011v1.953h-2.011v17.75h-1.953zm5.917-45.322v-2.012h7.869v2.012h-7.869zM99.578 292.756v-1.953h9.881v1.953h-9.881zm-1.953-1.953v-2.011h1.953v2.011h-1.953zm11.834 0v-2.011h1.952v2.011h-1.952zm1.952-2.011v-1.953h1.953v1.953h-1.953zm-15.797 0v-3.905h2.011v3.905h-2.011zm-1.953-3.905v-17.75h1.953v5.916h15.797v1.953H95.614v9.881h-1.953zm17.75-11.834v-5.916h1.953v5.916h-1.953zm-15.797-5.916v-3.964h2.011v3.964h-2.011zm13.845 0v-3.964h1.952v3.964h-1.952zm-11.834-3.964v-1.953h1.953v1.953h-1.953zm9.822 0v-1.953h2.012v1.953h-2.012zm-7.869-1.953v-2.012h7.869v2.012h-7.869zM134.827 292.756v-25.619h1.953v25.619h-1.953zm-1.952-25.619v-3.964h1.952v3.964h-1.952zm-11.834-3.964v-1.953h1.953v1.953h-1.953zm9.822 0v-1.953h2.012v1.953h-2.012zm-13.786 29.583v-33.548h1.953v3.965h2.011v1.952h-2.011v27.631h-1.953zm5.917-31.536v-2.012h7.869v2.012h-7.869zM164.659 292.756v-1.953h3.905v1.953h-3.905zm-2.012-1.953v-2.011h2.012v2.011h-2.012zm-1.952-2.011V261.22h-5.917v-2.012h5.917v-5.916h1.952v5.916h5.917v2.012h-5.917v27.572h-1.952zM178.433 292.756v-1.953h7.869v1.953h-7.869zm-1.953-1.953v-2.011h1.953v2.011h-1.953zm9.822 0v-2.011h2.012v2.011h-2.012zm-11.833-2.011v-3.905h2.011v3.905h-2.011zm13.845 0v-3.905h1.952v3.905h-1.952zm-15.798-3.905v-17.75h1.953v17.75h-1.953zm17.75 0v-17.75h1.953v17.75h-1.953zm-15.797-17.75v-3.964h2.011v3.964h-2.011zm13.845 0v-3.964h1.952v3.964h-1.952zm-11.834-3.964v-1.953h1.953v1.953h-1.953zm9.822 0v-1.953h2.012v1.953h-2.012zm-7.869-1.953v-2.012h7.869v2.012h-7.869zM216.135 292.756v-1.953h7.869v1.953h-7.869zm-1.953-1.953v-2.011h1.953v2.011h-1.953zm9.822 0v-2.011h2.012v2.011h-2.012zm-11.833-2.011v-3.905h2.011v3.905h-2.011zm-1.953-3.905v-25.679h1.953v25.679h-1.953zm17.75 7.869v-3.964h-1.952v-1.953h1.952v-27.631h1.953v33.548h-1.953zM237.843 292.756v-1.953h9.822v1.953h-9.822zm-2.011-1.953v-2.011h2.011v2.011h-2.011zm11.833 0v-2.011h2.012v2.011h-2.012zm-13.786-2.011v-1.953h1.953v1.953h-1.953zm15.798 0v-3.905h1.952v3.905h-1.952zm1.952-3.905v-7.929h1.953v7.929h-1.953zm-1.952-7.929v-3.905h1.952v3.905h-1.952zm-2.012-3.905v-1.952h2.012v1.952h-2.012zm-7.869-1.952v-2.012h7.869v2.012h-7.869zm-1.953-2.012v-1.952h1.953v1.952h-1.953zm-2.011-1.952v-3.964h2.011v3.964h-2.011zm2.011-3.964v-1.953h1.953v1.953h-1.953zm9.822 0v-1.953h2.012v1.953h-2.012zm-7.869-1.953v-2.012h7.869v2.012h-7.869z" fill-rule="nonzero"/><path d="M257.54 290.803h1.953v1.953h-1.953z"/></g><g><path d="M2.1 153.394v-2.1h4.167v2.1H2.1zm6.233 0v-2.1h2.1v2.1h-2.1zM0 151.294v-2.067h2.1v2.067H0zm0-6.233v-2.1h2.1v2.1H0zm6.267 6.233v-2.067H2.1v-2.1h4.167v-4.166h2.066v8.333H6.267zM2.1 142.961v-2.067h4.167v2.067H2.1zM18.767 153.394v-2.1h2.066v-8.333h2.1v8.333H25v2.1h-6.233zm-6.267 0v-2.1h2.1v-8.333h-2.1v-2.067h4.167v2.067h2.1v2.1h-2.1v8.333H12.5zm6.267-10.433v-2.067h2.066v2.067h-2.066zM27.083 151.294v-8.333h2.1v8.333h-2.1zm2.1 2.1v-2.1h4.167v-8.333h-4.167v-2.067h4.167v-6.267h4.167v2.1h-2.1v14.567h2.1v2.1h-8.334zM45.833 153.394v-2.1h2.1v2.1h-2.1zm-2.066-2.1v-8.333h-2.1v-4.167h2.1v-2.067h2.066v4.167h2.1v2.067h-2.1v8.333h-2.066zM56.267 153.394v-2.1h2.066v-8.333h2.1v8.333H62.5v2.1h-6.233zm-6.267 0v-2.1h2.1v-14.567H50v-2.1h4.167v6.267h4.166v2.067h-4.166v10.433H50zM66.683 153.394v-2.1h4.167v2.1h-4.167zm4.167-2.1v-2.067h2.067v2.067H70.85zm-6.267 0v-8.333h2.1v2.1h4.167v2.066h-4.167v4.167h-2.1zm6.267-6.233v-2.1h2.067v2.1H70.85zm-4.167-2.1v-2.067h4.167v2.067h-4.167zM77.083 153.394v-2.1h2.1v-14.567h-2.1v-2.1h4.167v16.667h2.1v2.1h-6.267zM87.517 153.394v-2.1h4.167v2.1h-4.167zm6.233 0v-2.1h2.1v2.1h-2.1zm-8.333-2.1v-2.067h2.1v2.067h-2.1zm0-6.233v-2.1h2.1v2.1h-2.1zm6.267 6.233v-2.067h-4.167v-2.1h4.167v-4.166h2.066v8.333h-2.066zm-4.167-8.333v-2.067h4.167v2.067h-4.167zM104.184 153.394v-2.1h2.066v-8.333h2.1v8.333h2.067v2.1h-6.233zm-6.267 0v-2.1h2.1v-8.333h-2.1v-2.067h4.167v2.067h2.1v2.1h-2.1v8.333h-4.167zm6.267-10.433v-2.067h2.066v2.067h-2.066zM112.5 151.294v-8.333h2.1v8.333h-2.1zm2.1 2.1v-2.1h4.167v-8.333H114.6v-2.067h4.167v-6.267h4.166v2.1h-2.1v14.567h2.1v2.1H114.6zM131.25 153.394v-2.1h2.1v-2.067h2.066v4.167h-4.166zm6.266 0v-4.167h2.067v2.067h2.1v2.1h-4.167zm-2.1-4.167v-4.166h2.1v4.166h-2.1zm4.167 0v-4.166h2.1v4.166h-2.1zm-8.333 0v-2.1h-2.067v-4.166h-2.1v-2.067h6.267v2.067h-2.1v2.1h2.1v4.166h-2.1zm10.433-4.166v-2.1h-2.1v-2.067h6.267v2.067h-2.1v2.1h-2.067zM150.017 153.394v-2.1h4.167v2.1h-4.167zm6.233 0v-2.1h2.1v2.1h-2.1zm-8.333-2.1v-2.067h2.1v2.067h-2.1zm0-6.233v-2.1h2.1v2.1h-2.1zm6.267 6.233v-2.067h-4.167v-2.1h4.167v-4.166h2.066v8.333h-2.066zm-4.167-8.333v-2.067h4.167v2.067h-4.167zM162.517 153.394v-2.1h4.167v2.1h-4.167zm-2.1-2.1v-2.067h2.1v2.067h-2.1zm6.267 0v-4.167h2.066v4.167h-2.066zm-4.167-4.167v-2.066h4.167v2.066h-4.167zm-2.1-2.066v-2.1h2.1v2.1h-2.1zm2.1-2.1v-2.067h4.167v2.067h-4.167zM179.184 153.394v-2.1h2.066v-8.333h2.1v8.333h2.067v2.1h-6.233zm-6.267 0v-2.1h2.1v-8.333h-2.1v-2.067h4.167v2.067h2.1v2.1h-2.1v8.333h-4.167zm6.267-10.433v-2.067h2.066v2.067h-2.066zM189.6 153.394v-2.1h4.167v2.1H189.6zm-2.1-2.1v-8.333h2.1v8.333h-2.1zm6.267 0v-8.333h2.066v8.333h-2.066zm-4.167-8.333v-2.067h4.167v2.067H189.6zM202.084 153.394v-2.1h2.1v2.1h-2.1zm-2.067-2.1v-8.333h-2.1v-4.167h2.1v-2.067h2.067v4.167h2.1v2.067h-2.1v8.333h-2.067zM210.433 157.561v-2.067h2.067v2.067h-2.067zm-2.1-2.067v-2.1h2.1v2.1h-2.1zm4.167 0v-2.1h2.1v2.1h-2.1zm2.1-2.1v-4.167h2.066v4.167H214.6zm-2.1-4.167v-4.166h2.1v4.166h-2.1zm4.166 0v-4.166h2.1v4.166h-2.1zm-6.233-4.166v-2.1h-2.1v-2.067h6.267v2.067h-2.1v2.1h-2.067zm8.333 0v-2.1h-2.1v-2.067h6.267v2.067h-2.1v2.1h-2.067zM227.1 153.394v-2.1h4.167v2.1H227.1zm4.167-2.1v-2.067h2.066v2.067h-2.066zm-6.267 0v-8.333h2.1v2.1h4.167v2.066H227.1v4.167H225zm6.267-6.233v-2.1h2.066v2.1h-2.066zm-4.167-2.1v-2.067h4.167v2.067H227.1zM239.584 153.394v-2.1h2.1v2.1h-2.1zm-2.067-2.1v-8.333h-2.1v-4.167h2.1v-2.067h2.067v4.167h2.1v2.067h-2.1v8.333h-2.067zM247.933 153.394v-2.1h4.167v2.1h-4.167zm4.167-2.1v-2.067h2.066v2.067H252.1zm-6.267 0v-8.333h2.1v8.333h-2.1zm6.267-6.233v-2.1h-4.167v-2.067h6.233v4.167H252.1zM258.35 153.394v-2.1h4.167v2.1h-4.167zm-2.1-2.1v-8.333h2.1v8.333h-2.1zm6.267 0v-8.333h2.066v8.333h-2.066zm-4.167-8.333v-2.067h4.167v2.067h-4.167zM275 145.061v-2.1h2.1v2.1H275zm-8.333 8.333v-2.1h2.1v-8.333h-2.1v-2.067h4.167v2.067h2.1v2.1h-2.1v6.233h2.1v2.1h-6.267zm6.267-10.433v-2.067H275v2.067h-2.066zM287.5 145.061v-2.1h2.1v2.1h-2.1zm-8.333 8.333v-2.1h2.1v-8.333h-2.1v-2.067h4.167v2.067h2.1v2.1h-2.1v6.233h2.1v2.1h-6.267zm6.267-10.433v-2.067h2.066v2.067h-2.066zM295.834 153.394v-2.1h2.1v2.1h-2.1zm-2.067-2.1v-8.333h-2.1v-2.067h4.167v10.4h-2.067zm6.233 2.1v-2.1h-2.066v-2.067H300v-6.266h-2.066v-2.067h6.233v2.067H302.1v8.333h2.067v2.1H300zM314.583 151.294v-8.333h2.1v8.333h-2.1zm-8.333 6.267v-2.067h2.1v-12.533h-2.1v-2.067h8.333v2.067h-4.166v8.333h4.166v2.1h-4.166v2.1h2.1v2.067h-6.267zM322.917 153.394v-2.1h2.1v2.1h-2.1zm-2.067-2.1v-8.333h-2.1v-4.167h2.1v-2.067h2.067v4.167h2.1v2.067h-2.1v8.333h-2.067zM329.183 153.394v-2.1h4.167v2.1h-4.167zm4.167-2.1v-2.067h2.066v2.067h-2.066zm-6.267 0v-8.333h2.1v2.1h4.167v2.066h-4.167v4.167h-2.1zm6.267-6.233v-2.1h2.066v2.1h-2.066zm-4.167-2.1v-2.067h4.167v2.067h-4.167zM337.5 151.294v-8.333h2.1v8.333h-2.1zm2.1 2.1v-2.1h4.167v-8.333H339.6v-2.067h4.167v-6.267h4.166v2.1h-2.1v14.567h2.1v2.1H339.6zM350 155.494v-2.1h2.1v2.1H350zm2.1-2.1v-2.1h2.067v2.1H352.1z" fill-rule="nonzero"/></g><g><path d="M3.9 188.072v-1.967h3.933v1.967H3.9zm-1.933-1.967v-1.933H3.9v1.933H1.967zm5.866 0v-1.933H9.8v1.933H7.833zm1.967-1.933v-1.967h1.967v1.967H9.8zm-9.8 0v-11.767h1.967v11.767H0zm1.967-11.767v-1.966H3.9v1.966H1.967zm1.933-1.966v-1.967h3.933v1.967H3.9zm5.9 3.9v-1.934H7.833v-1.966H9.8v-1.967h1.967v5.867H9.8zM17.621 188.072v-1.967h3.933v1.967h-3.933zm-1.934-1.967v-1.933h1.934v1.933h-1.934zm5.867 0v-1.933h1.967v1.933h-1.967zm-7.833-1.933v-11.767h1.966v11.767h-1.966zm9.8 0v-11.767h1.966v11.767h-1.966zm-7.834-11.767v-1.966h1.934v1.966h-1.934zm5.867 0v-1.966h1.967v1.966h-1.967zm-3.933-1.966v-1.967h3.933v1.967h-3.933zM39.208 172.405v-1.966h1.967v1.966h-1.967zm-11.767 15.667v-1.967h1.967v-15.666h-1.967v-1.967h3.9v1.967h1.967v1.966h-1.967v13.7h1.967v1.967h-5.867zm5.867-17.633v-1.967h5.9v1.967h-5.9zM54.89 172.405v-1.966h1.967v1.966H54.89zm-11.767 15.667v-1.967h1.967v-15.666h-1.967v-1.967h3.9v1.967h1.967v1.966h-1.967v13.7h1.967v1.967h-5.867zm5.867-17.633v-1.967h5.9v1.967h-5.9zM62.705 188.072v-1.967h3.934v1.967h-3.934zm-1.933-1.967v-1.933h1.933v1.933h-1.933zm5.867 0v-1.933h1.966v1.933h-1.966zm-7.834-1.933v-11.767h1.967v11.767h-1.967zm9.8 0v-11.767h1.967v11.767h-1.967zm-7.833-11.767v-1.966h1.933v1.966h-1.933zm5.867 0v-1.966h1.966v1.966h-1.966zm-3.934-1.966v-1.967h3.934v1.967h-3.934zM76.426 188.072v-1.967h3.933v1.967h-3.933zm-1.933-1.967v-1.933h1.933v1.933h-1.933zm-1.967-1.933v-11.767h1.967v11.767h-1.967zm1.967-11.767v-1.966h1.933v1.966h-1.933zm1.933-1.966v-1.967h3.933v1.967h-3.933zm5.9 17.633v-1.967h-1.967v-1.933h1.967v-11.767h-1.967v-1.966h1.967v-5.9h-1.967v-1.967h5.9v1.967h-1.966v21.566h1.966v1.967h-3.933zM92.108 188.072v-1.967h3.933v1.967h-3.933zm-1.933-1.967v-1.933h1.933v1.933h-1.933zm5.866 0v-1.933h1.967v1.933h-1.967zm1.967-1.933v-1.967h1.967v1.967h-1.967zm-9.8 0v-11.767h1.967v3.9h7.833v1.967h-7.833v5.9h-1.967zm9.8-7.867v-3.9h1.967v3.9h-1.967zm-7.833-3.9v-1.966h1.933v1.966h-1.933zm5.866 0v-1.966h1.967v1.966h-1.967zm-3.933-1.966v-1.967h3.933v1.967h-3.933zM105.829 188.072v-1.967h3.933v1.967h-3.933zm-1.933-1.967v-1.933h1.933v1.933h-1.933zm-1.967-1.933v-11.767h1.967v11.767h-1.967zm1.967-11.767v-1.966h1.933v1.966h-1.933zm1.933-1.966v-1.967h3.933v1.967h-3.933zm5.9 17.633v-1.967h-1.967v-1.933h1.967v-11.767h-1.967v-1.966h1.967v-5.9h-1.967v-1.967h5.9v1.967h-1.966v21.566h1.966v1.967h-3.933zM117.611 191.972v-1.933h1.967v1.933h-1.967zm1.967-1.933v-1.967h-1.967v-1.967h3.9v3.934h-1.933zM135.223 188.072v-1.967h3.933v1.967h-3.933zm7.867 0v-1.967h1.966v1.967h-1.966zm-9.8-1.967v-1.933h1.933v1.933h-1.933zm-1.967-1.933v-5.9h1.967v5.9h-1.967zm1.967-5.9v-1.967h1.933v1.967h-1.933zm0-5.867v-1.966h1.933v1.966h-1.933zm5.866 13.7v-1.933h1.967v-7.867h-5.9v-1.966h5.9v-3.9h1.967v15.666h-3.934zm-3.933-15.666v-1.967h5.9v1.967h-5.9zM156.805 188.072v-1.967h1.967v-13.7h1.966v13.7h1.934v1.967h-5.867zm0-15.667v-1.966h1.967v1.966h-1.967zm-9.8 15.667v-1.967h1.967v-15.666h-1.967v-1.967h3.9v1.967h1.967v1.966h-1.967v13.7h1.967v1.967h-5.867zm5.867-17.633v-1.967h3.933v1.967h-3.933zM168.548 188.072v-1.967h3.933v1.967h-3.933zm-1.933-1.967v-1.933h1.933v1.933h-1.933zm-1.967-1.933v-11.767h1.967v11.767h-1.967zm1.967-11.767v-1.966h1.933v1.966h-1.933zm1.933-1.966v-1.967h3.933v1.967h-3.933zm5.9 17.633v-1.967h-1.967v-1.933h1.967v-11.767h-1.967v-1.966h1.967v-5.9h-1.967v-1.967h5.9v1.967h-1.966v21.566h1.966v1.967h-3.933zM192.067 188.072v-1.967H196v1.967h-3.933zm-1.933-1.967v-1.933h1.933v1.933h-1.933zm5.866 0v-1.933h1.967v1.933H196zm1.967-1.933v-1.967h1.967v1.967h-1.967zm-9.8 0v-11.767h1.967v11.767h-1.967zm1.967-11.767v-1.966h1.933v1.966h-1.933zm1.933-1.966v-1.967H196v1.967h-3.933zm5.9 3.9v-1.934H196v-1.966h1.967v-1.967h1.967v5.867h-1.967zM213.655 172.405v-1.966h1.966v1.966h-1.966zm-11.767 15.667v-1.967h1.967v-15.666h-1.967v-1.967h3.9v1.967h1.967v1.966h-1.967v13.7h1.967v1.967h-5.867zm5.867-17.633v-1.967h5.9v1.967h-5.9zM221.47 188.072v-1.967h3.933v1.967h-3.933zm7.867 0v-1.967h1.966v1.967h-1.966zm-9.8-1.967v-1.933h1.933v1.933h-1.933zm-1.967-1.933v-5.9h1.967v5.9h-1.967zm1.967-5.9v-1.967h1.933v1.967h-1.933zm0-5.867v-1.966h1.933v1.966h-1.933zm5.866 13.7v-1.933h1.967v-7.867h-5.9v-1.966h5.9v-3.9h1.967v15.666h-3.934zm-3.933-15.666v-1.967h5.9v1.967h-5.9zM233.252 188.072v-3.9h1.967v1.933h7.833v-1.933h1.967v3.9h-11.767zm1.967-3.9v-3.933h1.933v3.933h-1.933zm1.933-3.933v-1.967h1.967v1.967h-1.967zm1.967-1.967v-1.967h1.966v1.967h-1.966zm1.966-1.967v-3.9h1.967v3.9h-1.967zm-7.833-3.9v-3.933h11.767v3.933h-1.967v-1.966h-7.833v1.966h-1.967zM250.873 188.072v-1.967h3.933v1.967h-3.933zm-1.933-1.967v-1.933h1.933v1.933h-1.933zm5.866 0v-1.933h1.967v1.933h-1.967zm1.967-1.933v-1.967h1.967v1.967h-1.967zm-9.8 0v-11.767h1.967v3.9h7.833v1.967h-7.833v5.9h-1.967zm9.8-7.867v-3.9h1.967v3.9h-1.967zm-7.833-3.9v-1.966h1.933v1.966h-1.933zm5.866 0v-1.966h1.967v1.966h-1.967zm-3.933-1.966v-1.967h3.933v1.967h-3.933zM264.593 188.072v-1.967h3.933v1.967h-3.933zm-1.933-1.967v-1.933h1.933v1.933h-1.933zm-1.967-1.933v-11.767h1.967v11.767h-1.967zm1.967-11.767v-1.966h1.933v1.966h-1.933zm1.933-1.966v-1.967h3.933v1.967h-3.933zm5.9 17.633v-1.967h-1.967v-1.933h1.967v-11.767h-1.967v-1.966h1.967v-5.9h-1.967v-1.967h5.9v1.967h-1.966v21.566h1.966v1.967h-3.933zM276.375 191.972v-1.933h1.967v1.933h-1.967zm1.967-1.933v-1.967h-1.967v-1.967h3.9v3.934h-1.933z" fill-rule="nonzero"/></g><g><path d="M0 311.552h1.787v10.712H0z"/><path d="M7.141 322.265v-1.788h5.35v1.788h-5.35zm5.35-1.788v-1.787h1.788v1.787h-1.788zm-3.562-1.787v-1.775h3.562v1.775H8.929zm-1.788-1.775v-1.788h1.788v1.788H7.141zm1.788-1.788v-1.787h3.562v1.787H8.929zM16.068 320.477v-1.787h1.788v1.787h-1.788zm1.788 1.788v-1.788h3.562v-1.787h-3.562v-1.775h3.562v-1.788h1.787v7.138h-5.349zm0-7.138v-1.787h3.562v1.787h-3.562zM26.781 322.265v-1.788h1.788v1.788h-1.788zm3.563 0v-1.788h1.787v1.788h-1.787zm-1.775-1.788v-3.562h1.775v3.562h-1.775zm-3.575 0v-7.137h1.787v7.137h-1.787zm7.137 0v-7.137h1.788v7.137h-1.788zM42.851 322.265v-1.788h3.563v1.788h-3.563zm-1.787-1.788v-5.35h-1.788v-1.787h1.788v-1.788h1.787v1.788h3.563v1.787h-3.563v5.35h-1.787zM53.553 322.265v-7.138h1.787v7.138h-1.787zm-1.775-7.138v-1.787h1.775v1.787h-1.775zm-3.575 7.138v-10.713h1.787v3.575h1.788v1.788H49.99v5.35h-1.787zM58.917 322.265v-1.788h3.562v1.788h-3.562zm-1.788-1.788v-5.35h1.788v1.788h3.562v1.775h-3.562v1.787h-1.788zm5.35-3.562v-1.788h1.788v1.788h-1.788zm-3.562-1.788v-1.787h3.562v1.787h-3.562zM69.63 322.265v-7.138h1.775v7.138H69.63zm3.563 0v-7.138h1.787v7.138h-1.787zm-7.138 0v-8.925h3.575v1.787h-1.788v7.138h-1.787zm5.35-7.138v-1.787h1.788v1.787h-1.788zM85.688 320.477v-5.35h1.787v5.35h-1.787zm-5.35 1.788v-10.713h1.787v1.788h3.563v1.787h-3.563v5.35h3.563v1.788h-5.35zM91.051 322.265v-1.788h1.788v1.788h-1.788zm-1.787-1.788v-7.137h1.787v7.137h-1.787zm5.35 1.788v-1.788h-1.775v-1.787h1.775v-5.35h1.788v8.925h-1.788zM98.19 322.265v-8.925h1.787v1.787h1.788v1.788h-1.788v5.35H98.19zm3.575-7.138v-1.787h3.562v1.787h-3.562zM108.905 324.052v-1.787h3.562v1.787h-3.562zm-1.788-5.362v-5.35h1.788v5.35h-1.788zm5.35 3.575v-1.788h-3.562v-1.787h3.562v-5.35h1.788v8.925h-1.788zM123.189 322.265v-1.788h3.562v1.788h-3.562zm-1.788-1.788v-5.35h-1.787v-1.787h1.787v-1.788h1.788v1.788h3.562v1.787h-3.562v5.35h-1.788zM133.89 322.265v-7.138h1.788v7.138h-1.788zm-1.775-7.138v-1.787h1.775v1.787h-1.775zm-3.575 7.138v-10.713h1.788v3.575h1.787v1.788h-1.787v5.35h-1.788zM139.253 322.265v-1.788h3.563v1.788h-3.563zm-1.787-1.788v-5.35h1.787v1.788h3.563v1.775h-3.563v1.787h-1.787zm5.35-3.562v-1.788h1.787v1.788h-1.787zm-3.563-1.788v-1.787h3.563v1.787h-3.563zM146.393 322.265v-7.138h1.787v7.138h-1.787zm0-8.925v-1.788h1.787v1.788h-1.787zM149.963 322.265v-8.925h1.787v1.787h1.788v1.788h-1.788v5.35h-1.787zm3.575-7.138v-1.787h3.562v1.787h-3.562zM167.81 322.265v-7.138h1.787v7.138h-1.787zm-1.775-7.138v-1.787h1.775v1.787h-1.775zm-3.575 7.138v-10.713h1.787v3.575h1.788v1.788h-1.788v5.35h-1.787zM173.175 322.265v-1.788h3.562v1.788h-3.562zm-1.788-1.788v-5.35h1.788v1.788h3.562v1.775h-3.562v1.787h-1.788zm5.35-3.562v-1.788h1.787v1.788h-1.787zm-3.562-1.788v-1.787h3.562v1.787h-3.562zM180.313 320.477v-1.787h1.787v1.787h-1.787zm1.787 1.788v-1.788h3.563v-1.787H182.1v-1.775h3.563v-1.788h1.787v7.138h-5.35zm0-7.138v-1.787h3.563v1.787H182.1zM189.24 320.477v-5.35h1.787v5.35h-1.787zm1.787 1.788v-1.788h3.563v-5.35h-3.563v-1.787h3.563v-1.788h1.787v10.713h-5.35zM201.736 322.265v-7.138h1.787v7.138h-1.787zm0-8.925v-1.788h1.787v1.788h-1.787zM210.657 322.265v-7.138h1.787v7.138h-1.787zm-5.35 0v-8.925h1.787v1.787h1.788v1.788h-1.788v5.35h-1.787zm3.575-7.138v-1.787h1.775v1.787h-1.775zM221.379 322.265v-1.788h3.562v1.788h-3.562zm-1.788-1.788v-5.35h-1.787v-1.787h1.787v-1.788h1.788v1.788h3.562v1.787h-3.562v5.35h-1.788zM232.08 322.265v-7.138h1.787v7.138h-1.787zm-1.775-7.138v-1.787h1.775v1.787h-1.775zm-3.575 7.138v-10.713h1.787v3.575h1.788v1.788h-1.788v5.35h-1.787zM237.444 322.265v-1.788h3.563v1.788h-3.563zm-1.787-1.788v-5.35h1.787v1.788h3.563v1.775h-3.563v1.787h-1.787zm5.35-3.562v-1.788h1.787v1.788h-1.787zm-3.563-1.788v-1.787h3.563v1.787h-3.563zM248.154 322.265v-1.788h5.35v1.788h-5.35zm5.35-1.788v-1.787h1.787v1.787h-1.787zm-3.562-1.787v-1.775h3.562v1.775h-3.562zm-1.788-1.775v-1.788h1.788v1.788h-1.788zm1.788-1.788v-1.787h3.562v1.787h-3.562zM257.08 320.477v-1.787h1.788v1.787h-1.788zm1.788 1.788v-1.788h3.562v-1.787h-3.562v-1.775h3.562v-1.788h1.787v7.138h-5.349zm0-7.138v-1.787h3.562v1.787h-3.562zM271.356 322.265v-7.138h1.787v7.138h-1.787zm-5.35 0v-8.925h1.788v1.787h1.787v1.788h-1.787v5.35h-1.788zm3.575-7.138v-1.787h1.775v1.787h-1.775zM274.933 320.477v-5.35h1.788v5.35h-1.788zm1.788 1.788v-1.788h3.562v-5.35h-3.562v-1.787h3.562v-1.788h1.788v10.713h-5.35zM287.43 320.477v-1.787h1.788v1.787h-1.788zm1.788 1.788v-1.788h3.562v-1.787h-3.562v-1.775h3.562v-1.788h1.788v7.138h-5.35zm0-7.138v-1.787h3.562v1.787h-3.562zM301.706 322.265v-7.138h1.788v7.138h-1.788zm-5.35 0v-8.925h1.788v1.787h1.787v1.788h-1.787v5.35h-1.788zm3.575-7.138v-1.787h1.775v1.787h-1.775zM305.283 320.477v-5.35h1.788v5.35h-1.788zm1.788 1.788v-1.788h3.562v-5.35h-3.562v-1.787h3.562v-1.788h1.787v10.713h-5.349zM317.78 322.265v-1.788h5.35v1.788h-5.35zm5.35-1.788v-1.787h1.787v1.787h-1.787zm-3.562-1.787v-1.775h3.562v1.775h-3.562zm-1.788-1.775v-1.788h1.788v1.788h-1.788zm1.788-1.788v-1.787h3.562v1.787h-3.562zM326.706 320.477v-1.787h1.788v1.787h-1.788zm1.788 1.788v-1.788h3.562v-1.787h-3.562v-1.775h3.562v-1.788h1.787v7.138h-5.349zm0-7.138v-1.787h3.562v1.787h-3.562zM337.42 324.052v-1.787h3.562v1.787h-3.562zm-1.788-5.362v-5.35h1.788v5.35h-1.788zm5.35 3.575v-1.788h-3.562v-1.787h3.562v-5.35h1.788v8.925h-1.788z" fill-rule="nonzero"/></g><g><path d="M5.35 339.776v-7.138h1.787v7.138H5.35zm-5.35 0v-8.925h1.787v1.787h1.788v1.788H1.787v5.35H0zm3.575-7.138v-1.787H5.35v1.787H3.575zM10.714 339.776v-1.788h3.562v1.788h-3.562zm-1.788-1.788v-5.35h1.788v5.35H8.926zm5.35 0v-5.35h1.788v5.35h-1.788zm-3.562-5.35v-1.787h3.562v1.787h-3.562zM21.428 339.776v-1.788h3.562v1.788h-3.562zm-1.788-1.788v-5.35h-1.787v-1.787h1.787v-1.788h1.788v1.788h3.562v1.787h-3.562v5.35H19.64zM32.129 339.776v-7.138h1.787v7.138h-1.787zm-1.775-7.138v-1.787h1.775v1.787h-1.775zm-3.575 7.138v-10.713h1.787v3.575h1.788v1.788h-1.788v5.35h-1.787zM35.706 339.776v-7.138h1.788v7.138h-1.788zm0-8.925v-1.788h1.788v1.788h-1.788zM44.626 339.776v-7.138h1.788v7.138h-1.788zm-5.35 0v-8.925h1.788v1.787h1.787v1.788h-1.787v5.35h-1.788zm3.575-7.138v-1.787h1.775v1.787h-1.775zM49.99 341.563v-1.787h3.563v1.787H49.99zm-1.787-5.362v-3.563h1.787v3.563h-1.787zm5.35 3.575v-1.788H49.99v-1.787h3.563v-3.563H49.99v-1.787h5.35v8.925h-1.787zM62.487 339.776v-1.788h1.787v1.788h-1.787zm3.562 0v-1.788h1.788v1.788h-1.788zm-1.775-1.788v-3.562h1.775v3.562h-1.775zm-3.575 0v-7.137h1.788v7.137h-1.788zm7.138 0v-7.137h1.787v7.137h-1.787zM71.411 337.988v-1.787h1.787v1.787h-1.787zm1.787 1.788v-1.788h3.563v-1.787h-3.563v-1.775h3.563v-1.788h1.787v7.138h-5.35zm0-7.138v-1.787h3.563v1.787h-3.563zM80.338 339.776v-1.788h5.35v1.788h-5.35zm5.35-1.788v-1.787h1.787v1.787h-1.787zm-3.563-1.787v-1.775h3.563v1.775h-3.563zm-1.787-1.775v-1.788h1.787v1.788h-1.787zm1.787-1.788v-1.787h3.563v1.787h-3.563zM94.621 339.776v-1.788h1.788v1.788h-1.788zm3.563 0v-1.788h1.787v1.788h-1.787zm-1.775-1.788v-3.562h1.775v3.562h-1.775zm-3.575 0v-7.137h1.787v7.137h-1.787zm7.137 0v-7.137h1.788v7.137h-1.788zM103.546 339.776v-8.925h1.788v1.787h1.787v1.788h-1.787v5.35h-1.788zm3.575-7.138v-1.787h3.563v1.787h-3.563zM114.26 339.776v-1.788h3.563v1.788h-3.563zm-1.787-1.788v-5.35h1.787v5.35h-1.787zm5.35 0v-5.35h1.788v5.35h-1.788zm-3.563-5.35v-1.787h3.563v1.787h-3.563zM126.749 339.776v-7.138h1.787v7.138h-1.787zm-5.35 0v-8.925h1.787v1.787h1.788v1.788h-1.788v5.35h-1.787zm3.575-7.138v-1.787h1.775v1.787h-1.775zM132.112 341.563v-1.787h3.563v1.787h-3.563zm-1.787-5.362v-3.563h1.787v3.563h-1.787zm5.35 3.575v-1.788h-3.563v-1.787h3.563v-3.563h-3.563v-1.787h5.35v8.925h-1.787z" fill-rule="nonzero"/><path d="M139.252 337.988h1.787v3.575h-1.787z"/><path d="M151.743 339.776v-7.138h1.787v7.138h-1.787zm-5.35 0v-8.925h1.787v1.787h1.788v1.788h-1.788v5.35h-1.787zm3.575-7.138v-1.787h1.775v1.787h-1.775zM157.106 339.776v-1.788h3.563v1.788h-3.563zm-1.787-1.788v-5.35h1.787v5.35h-1.787zm5.35 0v-5.35h1.787v5.35h-1.787zm-3.563-5.35v-1.787h3.563v1.787h-3.563zM167.821 339.776v-1.788h3.562v1.788h-3.562zm-1.788-1.788v-5.35h-1.787v-1.787h1.787v-1.788h1.788v1.788h3.562v1.787h-3.562v5.35h-1.788zM178.522 339.776v-7.138h1.787v7.138h-1.787zm-1.775-7.138v-1.787h1.775v1.787h-1.775zm-3.575 7.138v-10.713h1.787v3.575h1.788v1.788h-1.788v5.35h-1.787zM182.098 339.776v-7.138h1.787v7.138h-1.787zm0-8.925v-1.788h1.787v1.788h-1.787zM191.019 339.776v-7.138h1.787v7.138h-1.787zm-5.35 0v-8.925h1.787v1.787h1.788v1.788h-1.788v5.35h-1.787zm3.575-7.138v-1.787h1.775v1.787h-1.775zM196.382 341.563v-1.787h3.563v1.787h-3.563zm-1.787-5.362v-3.563h1.787v3.563h-1.787zm5.35 3.575v-1.788h-3.563v-1.787h3.563v-3.563h-3.563v-1.787h5.35v8.925h-1.787zM208.879 339.776v-1.788h1.788v1.788h-1.788zm3.563 0v-1.788h1.787v1.788h-1.787zm-1.775-1.788v-3.562h1.775v3.562h-1.775zm-3.575 0v-7.137h1.787v7.137h-1.787zm7.137 0v-7.137h1.788v7.137h-1.788zM217.804 337.988v-1.787h1.787v1.787h-1.787zm1.787 1.788v-1.788h3.563v-1.787h-3.563v-1.775h3.563v-1.788h1.787v7.138h-5.35zm0-7.138v-1.787h3.563v1.787h-3.563zM226.73 339.776v-1.788h5.35v1.788h-5.35zm5.35-1.788v-1.787h1.787v1.787h-1.787zm-3.563-1.787v-1.775h3.563v1.775h-3.563zm-1.787-1.775v-1.788h1.787v1.788h-1.787zm1.787-1.788v-1.787h3.563v1.787h-3.563zM244.577 336.201v-3.563h1.787v3.563h-1.787zm-5.35 5.362v-10.712h5.35v1.787h-3.563v3.563h3.563v1.787h-3.563v3.575h-1.787zM248.154 337.988v-1.787h1.788v1.787h-1.788zm1.788 1.788v-1.788h3.562v-1.787h-3.562v-1.775h3.562v-1.788h1.787v7.138h-5.349zm0-7.138v-1.787h3.562v1.787h-3.562zM257.08 339.776v-7.138h1.788v7.138h-1.788zm0-8.925v-1.788h1.788v1.788h-1.788zM266.001 339.776v-7.138h1.787v7.138h-1.787zm-5.35 0v-8.925h1.787v1.787h1.788v1.788h-1.788v5.35h-1.787zm3.575-7.138v-1.787h1.775v1.787h-1.775zM271.365 339.776v-1.788h3.562v1.788h-3.562zm-1.788-1.788v-5.35h1.788v1.788h3.562v1.775h-3.562v1.787h-1.788zm5.35-3.562v-1.788h1.788v1.788h-1.788zm-3.562-1.788v-1.787h3.562v1.787h-3.562zM278.503 337.988v-5.35h1.788v5.35h-1.788zm1.788 1.788v-1.788h3.562v-5.35h-3.562v-1.787h3.562v-1.788h1.787v10.713h-5.349z" fill-rule="nonzero"/><path d="M287.43 337.988h1.788v1.788h-1.788z"/></g></svg>